<?xml version="1.0" encoding="UTF-8" standalone="no"?>
<!DOCTYPE svg PUBLIC "-//W3C//DTD SVG 1.1//EN" "http://www.w3.org/Graphics/SVG/1.1/DTD/svg11.dtd">
<svg width="100%" height="100%" viewBox="0 0 1868 374" version="1.1" xmlns="http://www.w3.org/2000/svg" xmlns:xlink="http://www.w3.org/1999/xlink" xml:space="preserve" xmlns:serif="http://www.serif.com/" style="fill-rule:evenodd;clip-rule:evenodd;stroke-linejoin:round;stroke-miterlimit:2;">
    <g transform="matrix(1,0,0,1,-2239.47,-2367.63)">
        <g transform="matrix(4.16667,0,0,4.16667,288.246,43.9145)">
            <g id="text" transform="matrix(1,0,0,1,0,22.2333)">
                <g id="sugar" transform="matrix(1,0,0,1,11.7892,10.6578)">
                    <g id="s" transform="matrix(1,0,0,1,721.932,565.273)">
                        <path d="M0,38.526C-2.642,38.526 -5.343,38.073 -8.101,37.17C-10.859,36.265 -13.49,34.84 -15.993,32.893L-11.473,25.939C-9.434,27.423 -7.404,28.536 -5.389,29.277C-3.372,30.019 -1.484,30.39 0.278,30.39C1.809,30.39 2.933,30.135 3.652,29.624C4.369,29.115 4.729,28.443 4.729,27.608L4.729,27.469C4.729,26.912 4.521,26.426 4.104,26.009C3.686,25.591 3.119,25.232 2.4,24.931C1.681,24.63 0.857,24.339 -0.068,24.061C-0.996,23.783 -1.97,23.482 -2.99,23.158C-4.288,22.786 -5.598,22.336 -6.919,21.802C-8.239,21.269 -9.434,20.573 -10.5,19.715C-11.567,18.858 -12.436,17.803 -13.106,16.551C-13.779,15.299 -14.115,13.769 -14.115,11.962L-14.115,11.823C-14.115,9.922 -13.758,8.241 -13.038,6.781C-12.319,5.32 -11.346,4.08 -10.116,3.061C-8.889,2.041 -7.452,1.276 -5.806,0.766C-4.161,0.257 -2.388,0 -0.486,0C1.879,0 4.277,0.384 6.711,1.148C9.145,1.913 11.381,2.969 13.422,4.313L9.39,11.613C7.533,10.548 5.726,9.701 3.964,9.076C2.202,8.449 0.65,8.137 -0.694,8.137C-1.993,8.137 -2.967,8.38 -3.615,8.866C-4.265,9.354 -4.589,9.968 -4.589,10.71L-4.589,10.849C-4.589,11.359 -4.38,11.812 -3.962,12.205C-3.546,12.599 -2.99,12.969 -2.294,13.318C-1.599,13.665 -0.799,14.003 0.105,14.325C1.009,14.651 1.971,14.976 2.99,15.299C4.288,15.716 5.609,16.215 6.954,16.794C8.299,17.375 9.504,18.081 10.571,18.916C11.637,19.751 12.519,20.77 13.214,21.975C13.908,23.181 14.257,24.642 14.257,26.356L14.257,26.495C14.257,28.582 13.897,30.379 13.179,31.885C12.459,33.391 11.451,34.63 10.153,35.604C8.855,36.578 7.338,37.308 5.599,37.795C3.86,38.283 1.994,38.526 0,38.526" style="fill:white;fill-rule:nonzero;"/>
                    </g>
                    <g id="u" transform="matrix(1,0,0,1,757.885,565.83)">
                        <path d="M0,37.969C-4.034,37.969 -7.152,36.74 -9.354,34.283C-11.557,31.826 -12.657,28.442 -12.657,24.13L-12.657,0L-2.087,0L-2.087,20.741C-2.087,23.24 -1.53,25.125 -0.418,26.396C0.693,27.667 2.27,28.303 4.311,28.303C6.35,28.303 7.961,27.667 9.143,26.396C10.326,25.125 10.916,23.24 10.916,20.741L10.916,0L21.486,0L21.486,37.273L10.916,37.273L10.916,31.945C10.313,32.74 9.653,33.497 8.935,34.221C8.215,34.945 7.415,35.586 6.536,36.148C5.654,36.708 4.681,37.152 3.615,37.479C2.548,37.804 1.344,37.969 0,37.969" style="fill:white;fill-rule:nonzero;"/>
                    </g>
                    <g id="g" transform="matrix(1,0,0,1,808.508,588.358)">
                        <path d="M0,3.062C1.296,3.062 2.502,2.853 3.615,2.435C4.729,2.018 5.689,1.428 6.501,0.662C7.312,-0.103 7.949,-1.018 8.414,-2.085C8.877,-3.15 9.109,-4.309 9.109,-5.561L9.109,-5.7C9.109,-6.952 8.877,-8.11 8.414,-9.178C7.949,-10.244 7.312,-11.159 6.501,-11.923C5.689,-12.689 4.729,-13.279 3.615,-13.697C2.502,-14.114 1.296,-14.323 0,-14.323C-1.3,-14.323 -2.493,-14.114 -3.582,-13.697C-4.672,-13.279 -5.622,-12.689 -6.433,-11.923C-7.244,-11.159 -7.882,-10.244 -8.345,-9.178C-8.81,-8.11 -9.041,-6.952 -9.041,-5.7L-9.041,-5.561C-9.041,-2.964 -8.183,-0.879 -6.468,0.697C-4.753,2.273 -2.598,3.062 0,3.062M-1.252,26.147C-4.312,26.147 -7.232,25.812 -10.015,25.141C-12.795,24.468 -15.369,23.506 -17.732,22.254L-14.117,14.327C-12.17,15.393 -10.212,16.227 -8.241,16.831C-6.271,17.432 -4.034,17.734 -1.53,17.734C2.085,17.734 4.763,16.877 6.501,15.161C8.239,13.446 9.109,10.919 9.109,7.582L9.109,5.774C7.533,7.675 5.816,9.158 3.964,10.224C2.108,11.291 -0.232,11.823 -3.061,11.823C-5.24,11.823 -7.325,11.44 -9.318,10.676C-11.313,9.911 -13.073,8.788 -14.604,7.304C-16.134,5.82 -17.351,4 -18.254,1.845C-19.159,-0.312 -19.609,-2.779 -19.609,-5.561L-19.609,-5.7C-19.609,-8.482 -19.148,-10.951 -18.22,-13.106C-17.292,-15.262 -16.063,-17.081 -14.534,-18.565C-13.005,-20.048 -11.243,-21.173 -9.249,-21.938C-7.257,-22.702 -5.193,-23.085 -3.061,-23.085C-0.187,-23.085 2.179,-22.551 4.032,-21.485C5.887,-20.418 7.533,-19.098 8.97,-17.521L8.97,-22.39L19.539,-22.39L19.539,6.469C19.539,13.099 17.963,17.988 14.812,21.142C13.049,22.902 10.835,24.178 8.171,24.966C5.503,25.754 2.363,26.147 -1.252,26.147" style="fill:white;fill-rule:nonzero;"/>
                    </g>
                    <g id="r" transform="matrix(1,0,0,1,882.146,602.966)">
                        <path d="M0,-36.44L10.57,-36.44L10.57,-28.93C11.637,-31.478 13.097,-33.519 14.952,-35.049C16.805,-36.579 19.309,-37.273 22.462,-37.135L22.462,-26.079L21.906,-26.079C18.382,-26.079 15.612,-25.012 13.596,-22.879C11.578,-20.747 10.57,-17.431 10.57,-12.936L10.57,0.833L0,0.833L0,-36.44Z" style="fill:white;fill-rule:nonzero;"/>
                    </g>
                    <g id="a" transform="matrix(1,0,0,1,853.011,572.715)">
                        <path d="M0,23.781C2.504,23.781 4.508,23.18 6.015,21.974C7.521,20.768 8.275,19.192 8.275,17.244L8.275,15.367C7.348,14.95 6.316,14.615 5.181,14.36C4.045,14.104 2.827,13.976 1.529,13.976C-0.742,13.976 -2.527,14.418 -3.825,15.298C-5.123,16.179 -5.771,17.454 -5.771,19.123L-5.771,19.262C-5.771,20.699 -5.239,21.812 -4.172,22.599C-3.106,23.388 -1.716,23.781 0,23.781M-3.198,31.084C-4.961,31.084 -6.618,30.841 -8.171,30.352C-9.725,29.866 -11.08,29.136 -12.239,28.162C-13.397,27.188 -14.314,25.996 -14.986,24.582C-15.658,23.168 -15.993,21.533 -15.993,19.679L-15.993,19.54C-15.993,17.5 -15.623,15.739 -14.882,14.254C-14.141,12.771 -13.108,11.542 -11.786,10.569C-10.466,9.596 -8.89,8.865 -7.059,8.378C-5.227,7.892 -3.198,7.649 -0.975,7.649C0.928,7.649 2.585,7.788 3.998,8.066C5.412,8.344 6.791,8.716 8.137,9.179L8.137,8.552C8.137,6.327 7.464,4.636 6.119,3.476C4.773,2.318 2.781,1.738 0.139,1.738C-1.902,1.738 -3.697,1.912 -5.25,2.259C-6.805,2.607 -8.438,3.106 -10.152,3.754L-12.795,-4.311C-10.756,-5.192 -8.622,-5.912 -6.397,-6.468C-4.172,-7.025 -1.484,-7.303 1.669,-7.303C4.59,-7.303 7.08,-6.942 9.144,-6.224C11.206,-5.505 12.911,-4.473 14.256,-3.13C15.646,-1.739 16.665,-0.035 17.314,1.981C17.964,3.998 18.288,6.258 18.288,8.761L18.288,30.387L8.066,30.387L8.066,26.355C6.769,27.792 5.216,28.94 3.407,29.797C1.6,30.654 -0.603,31.084 -3.198,31.084" style="fill:white;fill-rule:nonzero;"/>
                    </g>
                </g>
                <g id="stolen" transform="matrix(1,0,0,1,0.642885,11.8118)">
                    <g id="s1" serif:id="s" transform="matrix(1,0,0,1,483.645,563.98)">
                        <path d="M0,38.525C-2.643,38.525 -5.344,38.073 -8.101,37.17C-10.86,36.264 -13.491,34.839 -15.995,32.892L-11.474,25.938C-9.435,27.422 -7.406,28.535 -5.389,29.277C-3.373,30.018 -1.484,30.39 0.278,30.39C1.808,30.39 2.931,30.134 3.65,29.624C4.369,29.115 4.728,28.442 4.728,27.608L4.728,27.468C4.728,26.912 4.52,26.426 4.103,26.008C3.686,25.591 3.117,25.232 2.399,24.931C1.679,24.629 0.857,24.339 -0.07,24.061C-0.998,23.783 -1.971,23.482 -2.99,23.157C-4.289,22.786 -5.598,22.335 -6.919,21.801C-8.24,21.268 -9.435,20.572 -10.5,19.715C-11.567,18.858 -12.437,17.803 -13.108,16.551C-13.781,15.299 -14.117,13.769 -14.117,11.962L-14.117,11.822C-14.117,9.922 -13.758,8.241 -13.039,6.781C-12.32,5.319 -11.347,4.08 -10.118,3.06C-8.89,2.041 -7.453,1.276 -5.807,0.766C-4.162,0.256 -2.389,0 -0.487,0C1.877,0 4.276,0.383 6.71,1.148C9.145,1.912 11.38,2.968 13.421,4.312L9.387,11.613C7.533,10.547 5.725,9.701 3.964,9.075C2.201,8.449 0.648,8.137 -0.696,8.137C-1.994,8.137 -2.967,8.38 -3.616,8.866C-4.266,9.354 -4.59,9.968 -4.59,10.71L-4.59,10.849C-4.59,11.359 -4.381,11.812 -3.964,12.205C-3.546,12.599 -2.99,12.969 -2.294,13.317C-1.6,13.665 -0.8,14.002 0.104,14.325C1.008,14.65 1.97,14.976 2.99,15.299C4.287,15.716 5.608,16.214 6.954,16.794C8.297,17.375 9.503,18.081 10.57,18.916C11.635,19.75 12.517,20.77 13.212,21.974C13.908,23.18 14.255,24.642 14.255,26.356L14.255,26.495C14.255,28.581 13.896,30.379 13.178,31.884C12.458,33.39 11.45,34.63 10.152,35.604C8.854,36.578 7.336,37.308 5.598,37.795C3.859,38.282 1.993,38.525 0,38.525" style="fill:white;fill-rule:nonzero;"/>
                    </g>
                    <g id="t" transform="matrix(1,0,0,1,516.328,555.01)">
                        <path d="M0,47.425C-1.623,47.425 -3.095,47.252 -4.416,46.904C-5.737,46.557 -6.874,45.943 -7.823,45.062C-8.773,44.181 -9.516,43.033 -10.048,41.619C-10.582,40.205 -10.848,38.409 -10.848,36.231L-10.848,18.567L-15.299,18.567L-15.299,9.527L-10.848,9.527L-10.848,0L-0.278,0L-0.278,9.527L8.484,9.527L8.484,18.567L-0.278,18.567L-0.278,34.548C-0.278,36.968 0.858,38.177 3.129,38.177C4.983,38.177 6.722,37.715 8.345,36.786L8.345,45.27C7.232,45.92 6.003,46.442 4.66,46.835C3.314,47.228 1.761,47.425 0,47.425" style="fill:white;fill-rule:nonzero;"/>
                    </g>
                    <g id="o" transform="matrix(1,0,0,1,549.289,572.951)">
                        <path d="M0,20.584C1.53,20.584 2.886,20.318 4.069,19.785C5.25,19.251 6.259,18.522 7.093,17.594C7.928,16.666 8.564,15.588 9.005,14.359C9.446,13.132 9.667,11.822 9.667,10.431L9.667,10.292C9.667,8.901 9.434,7.592 8.971,6.363C8.507,5.135 7.834,4.045 6.954,3.095C6.073,2.146 5.03,1.391 3.825,0.835C2.619,0.279 1.298,0.001 -0.139,0.001C-1.668,0.001 -3.024,0.268 -4.207,0.8C-5.389,1.334 -6.397,2.063 -7.232,2.991C-8.066,3.918 -8.704,4.996 -9.144,6.224C-9.585,7.453 -9.805,8.762 -9.805,10.153L-9.805,10.292C-9.805,11.683 -9.573,12.993 -9.109,14.22C-8.646,15.449 -7.974,16.539 -7.093,17.489C-6.212,18.439 -5.181,19.193 -3.998,19.75C-2.815,20.306 -1.484,20.584 0,20.584M-0.139,29.694C-3.014,29.694 -5.679,29.195 -8.135,28.199C-10.593,27.202 -12.714,25.834 -14.499,24.096C-16.284,22.357 -17.687,20.318 -18.705,17.976C-19.726,15.636 -20.235,13.12 -20.235,10.431L-20.235,10.292C-20.235,7.604 -19.726,5.088 -18.705,2.748C-17.687,0.407 -16.271,-1.644 -14.464,-3.407C-12.656,-5.168 -10.524,-6.559 -8.066,-7.58C-5.609,-8.598 -2.92,-9.11 0,-9.11C2.874,-9.11 5.54,-8.61 7.998,-7.614C10.454,-6.617 12.575,-5.25 14.36,-3.512C16.145,-1.772 17.547,0.268 18.567,2.608C19.586,4.949 20.098,7.465 20.098,10.153L20.098,10.292C20.098,12.98 19.586,15.497 18.567,17.837C17.547,20.179 16.134,22.23 14.325,23.992C12.518,25.754 10.384,27.144 7.928,28.164C5.47,29.183 2.782,29.694 -0.139,29.694" style="fill:white;fill-rule:nonzero;"/>
                    </g>
                    <g id="l" transform="matrix(1,0,0,1,172.259,-47.144)">
                        <rect x="403.523" y="598.19" width="10.57" height="50.764" style="fill:white;"/>
                    </g>
                    <g id="e" transform="matrix(1,0,0,1,619.035,586.232)">
                        <path d="M0,-5.98C-0.325,-8.345 -1.159,-10.257 -2.504,-11.717C-3.849,-13.177 -5.633,-13.908 -7.858,-13.908C-10.083,-13.908 -11.88,-13.188 -13.247,-11.752C-14.615,-10.314 -15.507,-8.39 -15.925,-5.98L0,-5.98ZM-6.814,16.412C-9.597,16.412 -12.182,15.947 -14.569,15.02C-16.957,14.094 -19.019,12.773 -20.757,11.057C-22.496,9.343 -23.852,7.314 -24.825,4.973C-25.799,2.632 -26.286,0.024 -26.286,-2.851L-26.286,-2.99C-26.286,-5.632 -25.833,-8.136 -24.93,-10.501C-24.026,-12.864 -22.763,-14.926 -21.14,-16.688C-19.518,-18.45 -17.583,-19.84 -15.333,-20.862C-13.085,-21.88 -10.594,-22.392 -7.858,-22.392C-4.752,-22.392 -2.063,-21.835 0.209,-20.723C2.479,-19.61 4.369,-18.115 5.875,-16.237C7.382,-14.359 8.494,-12.203 9.213,-9.77C9.932,-7.336 10.292,-4.798 10.292,-2.155C10.292,-1.738 10.28,-1.296 10.257,-0.834C10.233,-0.37 10.198,0.116 10.153,0.627L-15.786,0.627C-15.275,3.038 -14.221,4.858 -12.621,6.085C-11.022,7.314 -9.04,7.928 -6.676,7.928C-4.915,7.928 -3.337,7.626 -1.947,7.024C-0.556,6.422 0.88,5.448 2.364,4.103L8.414,9.458C6.651,11.638 4.52,13.341 2.017,14.568C-0.487,15.797 -3.432,16.412 -6.814,16.412" style="fill:white;fill-rule:nonzero;"/>
                    </g>
                    <g id="n" transform="matrix(1,0,0,1,635.445,601.114)">
                        <path d="M0,-36.578L10.57,-36.578L10.57,-31.249C11.171,-32.043 11.832,-32.802 12.552,-33.526C13.27,-34.249 14.069,-34.89 14.95,-35.45C15.831,-36.011 16.804,-36.455 17.871,-36.782C18.937,-37.109 20.142,-37.273 21.487,-37.273C25.52,-37.273 28.638,-36.044 30.84,-33.588C33.041,-31.13 34.143,-27.745 34.143,-23.434L34.143,0.695L23.573,0.695L23.573,-20.046C23.573,-22.542 23.017,-24.427 21.904,-25.7C20.792,-26.97 19.215,-27.606 17.176,-27.606C15.135,-27.606 13.525,-26.97 12.343,-25.7C11.161,-24.427 10.57,-22.542 10.57,-20.046L10.57,0.695L0,0.695L0,-36.578Z" style="fill:white;fill-rule:nonzero;"/>
                    </g>
                </g>
                <g transform="matrix(1,0,0,1,-11.419,5.10474)">
                    <g transform="matrix(0.24,0,0,0.24,8.96323,-316.528)">
                        <path d="M2120.44,3528.69L2164.47,3528.69C2164.47,3528.69 2164.47,3569.77 2164.47,3569.77C2164.47,3569.77 2120.44,3569.77 2120.44,3569.77L2120.44,3528.69Z" style="fill:rgb(255,0,204);"/>
                    </g>
                    <g transform="matrix(0.24,0,0,0.24,46.6783,-316.528)">
                        <path d="M2120.44,3528.69L2164.47,3528.69C2164.47,3528.69 2164.47,3569.77 2164.47,3569.77C2164.47,3569.77 2120.44,3569.77 2120.44,3569.77L2120.44,3528.69Z" style="fill:rgb(255,204,0);"/>
                    </g>
                    <g transform="matrix(0.24,0,0,0.24,78.2971,-316.528)">
                        <path d="M2120.44,3528.69L2164.47,3528.69C2164.47,3528.69 2164.47,3569.77 2164.47,3569.77C2164.47,3569.77 2120.44,3569.77 2120.44,3569.77L2120.44,3528.69Z" style="fill:rgb(0,204,204);"/>
                    </g>
                    <g transform="matrix(0.24,0,0,0.24,149.597,-316.528)">
                        <path d="M2120.44,3528.69L2164.47,3528.69C2164.47,3528.69 2164.47,3569.77 2164.47,3569.77C2164.47,3569.77 2120.44,3569.77 2120.44,3569.77L2120.44,3528.69Z" style="fill:rgb(51,153,0);"/>
                    </g>
                    <g transform="matrix(0.24,0,0,0.24,364.069,-316.182)">
                        <path d="M2120.44,3528.69L2164.47,3528.69C2164.47,3528.69 2164.47,3569.77 2164.47,3569.77C2164.47,3569.77 2120.44,3569.77 2120.44,3569.77L2120.44,3528.69Z" style="fill:rgb(255,0,0);"/>
                    </g>
                </g>
            </g>
        </g>
    </g>
</svg>
