<?xml version="1.0" encoding="UTF-8" standalone="no"?><!DOCTYPE svg PUBLIC "-//W3C//DTD SVG 1.1//EN" "http://www.w3.org/Graphics/SVG/1.1/DTD/svg11.dtd"><svg width="100%" height="100%" viewBox="0 0 1868 374" version="1.1" xmlns="http://www.w3.org/2000/svg" xmlns:xlink="http://www.w3.org/1999/xlink" xml:space="preserve" xmlns:serif="http://www.serif.com/" style="fill-rule:evenodd;clip-rule:evenodd;stroke-linejoin:round;stroke-miterlimit:2;"><g id="text"><g id="sugar"><path id="s" d="M1105.95,328.434c-11.008,0 -22.263,-1.887 -33.754,-5.65c-11.492,-3.771 -22.454,-9.708 -32.884,-17.821l18.834,-28.975c8.496,6.184 16.954,10.821 25.35,13.909c8.404,3.091 16.271,4.637 23.612,4.637c6.379,0 11.063,-1.062 14.059,-3.192c2.987,-2.12 4.487,-4.92 4.487,-8.4l0,-0.579c0,-2.321 -0.867,-4.346 -2.604,-6.083c-1.742,-1.742 -4.104,-3.238 -7.1,-4.492c-2.996,-1.254 -6.429,-2.466 -10.283,-3.625c-3.867,-1.158 -7.925,-2.412 -12.175,-3.762c-5.409,-1.55 -10.867,-3.425 -16.371,-5.65c-5.5,-2.221 -10.479,-5.121 -14.921,-8.696c-4.446,-3.571 -8.067,-7.967 -10.858,-13.183c-2.805,-5.217 -4.205,-11.592 -4.205,-19.121l0,-0.579c0,-7.921 1.488,-14.925 4.488,-21.009c2.996,-6.087 7.05,-11.254 12.175,-15.5c5.112,-4.25 11.1,-7.437 17.958,-9.562c6.854,-2.121 14.242,-3.192 22.167,-3.192c9.854,0 19.846,1.6 29.987,4.783c10.142,3.188 19.459,7.588 27.963,13.188l-16.8,30.417c-7.738,-4.438 -15.267,-7.967 -22.608,-10.571c-7.342,-2.613 -13.809,-3.913 -19.409,-3.913c-5.412,0 -9.471,1.013 -12.171,3.038c-2.708,2.033 -4.058,4.591 -4.058,7.683l0,0.579c0,2.125 0.871,4.013 2.613,5.65c1.733,1.642 4.05,3.184 6.95,4.638c2.895,1.446 6.229,2.854 9.995,4.196c3.767,1.358 7.775,2.712 12.021,4.058c5.409,1.737 10.913,3.817 16.517,6.229c5.604,2.421 10.625,5.363 15.071,8.842c4.441,3.479 8.116,7.725 11.012,12.746c2.892,5.025 4.346,11.112 4.346,18.254l0,0.579c0,8.696 -1.5,16.183 -4.492,22.458c-3,6.275 -7.2,11.438 -12.608,15.496c-5.408,4.058 -11.729,7.1 -18.975,9.129c-7.246,2.034 -15.021,3.046 -23.329,3.046" style="fill:#fff;fill-rule:nonzero;"/><path id="u" d="M1255.76,328.434c-16.808,0 -29.8,-5.121 -38.975,-15.358c-9.179,-10.238 -13.763,-24.338 -13.763,-42.304l0,-100.542l44.042,-0l0,86.421c0,10.412 2.321,18.266 6.954,23.562c4.629,5.296 11.2,7.946 19.704,7.946c8.496,0 15.209,-2.65 20.134,-7.946c4.929,-5.296 7.387,-13.15 7.387,-23.562l0,-86.421l44.042,-0l-0,155.304l-44.042,0l0,-22.2c-2.512,3.313 -5.262,6.467 -8.254,9.483c-3,3.017 -6.333,5.688 -9.996,8.03c-3.675,2.333 -7.729,4.183 -12.171,5.545c-4.445,1.355 -9.462,2.042 -15.062,2.042" style="fill:#fff;fill-rule:nonzero;"/><path id="g" d="M1466.68,276.855c5.4,-0 10.425,-0.871 15.063,-2.613c4.641,-1.737 8.641,-4.195 12.025,-7.387c3.379,-3.188 6.033,-7 7.97,-11.446c1.93,-4.437 2.896,-9.267 2.896,-14.483l0,-0.579c0,-5.217 -0.966,-10.042 -2.896,-14.492c-1.937,-4.442 -4.591,-8.254 -7.97,-11.438c-3.384,-3.191 -7.384,-5.65 -12.025,-7.391c-4.638,-1.738 -9.663,-2.609 -15.063,-2.609c-5.417,0 -10.387,0.871 -14.925,2.609c-4.542,1.741 -8.5,4.2 -11.879,7.391c-3.379,3.184 -6.038,6.996 -7.967,11.438c-1.937,4.45 -2.9,9.275 -2.9,14.492l0,0.579c0,10.821 3.575,19.508 10.721,26.075c7.146,6.566 16.125,9.854 26.95,9.854m-5.217,96.187c-12.75,0 -24.916,-1.395 -36.512,-4.191c-11.583,-2.804 -22.308,-6.813 -32.154,-12.029l15.062,-33.03c8.113,4.442 16.271,7.917 24.484,10.434c8.208,2.504 17.529,3.762 27.962,3.762c15.063,0 26.221,-3.571 33.463,-10.721c7.241,-7.145 10.866,-17.675 10.866,-31.579l0,-7.533c-6.566,7.921 -13.721,14.1 -21.437,18.542c-7.734,4.445 -17.484,6.662 -29.271,6.662c-9.079,0 -17.767,-1.596 -26.071,-4.779c-8.312,-3.188 -15.646,-7.867 -22.025,-14.05c-6.375,-6.183 -11.446,-13.767 -15.208,-22.746c-3.771,-8.987 -5.646,-19.267 -5.646,-30.858l-0,-0.579c-0,-11.592 1.921,-21.88 5.787,-30.859c3.867,-8.983 8.988,-16.562 15.359,-22.746c6.371,-6.179 13.712,-10.866 22.021,-14.054c8.3,-3.183 16.9,-4.779 25.783,-4.779c11.975,0 21.833,2.225 29.554,6.667c7.729,4.446 14.588,9.946 20.575,16.516l0,-20.287l44.038,-0l-0,120.246c-0,27.625 -6.567,47.996 -19.696,61.137c-7.346,7.334 -16.571,12.65 -27.671,15.934c-11.117,3.283 -24.2,4.92 -39.263,4.92" style="fill:#fff;fill-rule:nonzero;"/><path id="r" d="M1773.51,173.13l44.042,-0l-0,31.292c4.445,-10.617 10.529,-19.121 18.258,-25.496c7.721,-6.375 18.154,-9.267 31.292,-8.692l-0,46.067l-2.317,-0c-14.683,-0 -26.225,4.446 -34.625,13.333c-8.408,8.883 -12.608,22.7 -12.608,41.429l-0,57.371l-44.042,0l-0,-155.304Z" style="fill:#fff;fill-rule:nonzero;"/><path id="a" d="M1652.11,298.005c10.433,-0 18.783,-2.504 25.062,-7.529c6.275,-5.025 9.417,-11.592 9.417,-19.709l-0,-7.82c-3.863,-1.738 -8.163,-3.134 -12.892,-4.196c-4.733,-1.067 -9.808,-1.6 -15.216,-1.6c-9.463,-0 -16.9,1.841 -22.309,5.508c-5.408,3.671 -8.108,8.983 -8.108,15.938l-0,0.579c-0,5.987 2.217,10.625 6.662,13.904c4.442,3.287 10.234,4.925 17.384,4.925m-13.325,30.429c-7.346,0 -14.25,-1.012 -20.721,-3.05c-6.475,-2.025 -12.121,-5.067 -16.95,-9.125c-4.825,-4.058 -8.646,-9.025 -11.446,-14.917c-2.8,-5.891 -4.196,-12.704 -4.196,-20.429l0,-0.579c0,-8.5 1.542,-15.837 4.629,-22.025c3.088,-6.179 7.392,-11.3 12.9,-15.354c5.5,-4.054 12.067,-7.1 19.696,-9.129c7.634,-2.025 16.088,-3.038 25.35,-3.038c7.929,0 14.834,0.579 20.721,1.738c5.892,1.158 11.638,2.708 17.246,4.637l-0,-2.612c-0,-9.271 -2.804,-16.317 -8.408,-21.15c-5.609,-4.825 -13.909,-7.242 -24.917,-7.242c-8.504,0 -15.983,0.725 -22.454,2.171c-6.479,1.45 -13.284,3.529 -20.425,6.229l-11.013,-33.604c8.496,-3.671 17.388,-6.671 26.659,-8.988c9.27,-2.32 20.47,-3.479 33.608,-3.479c12.171,0 22.546,1.504 31.146,4.496c8.591,2.996 15.696,7.296 21.3,12.892c5.791,5.796 10.037,12.896 12.741,21.296c2.709,8.404 4.059,17.82 4.059,28.25l-0,90.108l-42.592,-0l0,-16.8c-5.404,5.987 -11.875,10.771 -19.412,14.342c-7.53,3.57 -16.709,5.362 -27.521,5.362" style="fill:#fff;fill-rule:nonzero;"/></g><g id="stolen"><path id="s1" serif:id="s" d="M66.646,327.852c-11.013,-0 -22.267,-1.884 -33.754,-5.646c-11.496,-3.775 -22.459,-9.713 -32.892,-17.825l18.838,-28.975c8.495,6.183 16.95,10.821 25.354,13.912c8.4,3.088 16.271,4.638 23.612,4.638c6.375,-0 11.054,-1.067 14.05,-3.192c2.996,-2.121 4.492,-4.925 4.492,-8.4l-0,-0.583c-0,-2.317 -0.867,-4.342 -2.604,-6.084c-1.738,-1.737 -4.109,-3.233 -7.1,-4.487c-3,-1.258 -6.425,-2.467 -10.288,-3.625c-3.866,-1.158 -7.921,-2.413 -12.166,-3.767c-5.413,-1.546 -10.867,-3.425 -16.371,-5.65c-5.504,-2.221 -10.484,-5.121 -14.921,-8.691c-4.446,-3.571 -8.071,-7.967 -10.867,-13.184c-2.804,-5.216 -4.204,-11.591 -4.204,-19.121l0,-0.583c0,-7.917 1.496,-14.921 4.492,-21.004c2.996,-6.092 7.05,-11.254 12.171,-15.504c5.116,-4.246 11.104,-7.434 17.962,-9.559c6.854,-2.125 14.242,-3.191 22.167,-3.191c9.85,-0 19.846,1.596 29.987,4.783c10.146,3.183 19.459,7.583 27.963,13.183l-16.809,30.421c-7.725,-4.441 -15.258,-7.966 -22.595,-10.575c-7.346,-2.608 -13.817,-3.908 -19.417,-3.908c-5.408,-0 -9.463,1.012 -12.167,3.037c-2.708,2.034 -4.058,4.592 -4.058,7.684l-0,0.579c-0,2.125 0.871,4.012 2.608,5.65c1.742,1.642 4.059,3.183 6.959,4.633c2.891,1.45 6.225,2.854 9.991,4.2c3.767,1.354 7.775,2.713 12.025,4.059c5.404,1.737 10.909,3.812 16.517,6.229c5.596,2.421 10.621,5.362 15.067,8.841c4.437,3.475 8.112,7.725 11.008,12.742c2.9,5.025 4.346,11.117 4.346,18.258l-0,0.58c-0,8.691 -1.496,16.183 -4.488,22.454c-3,6.275 -7.2,11.441 -12.608,15.5c-5.408,4.058 -11.733,7.1 -18.975,9.129c-7.246,2.029 -15.021,3.042 -23.325,3.042" style="fill:#fff;fill-rule:nonzero;"/><path id="t" d="M202.824,327.559c-6.763,-0 -12.896,-0.721 -18.4,-2.171c-5.504,-1.446 -10.242,-4.004 -14.196,-7.675c-3.958,-3.671 -7.054,-8.454 -9.271,-14.346c-2.225,-5.892 -3.333,-13.375 -3.333,-22.45l-0,-73.6l-18.546,0l-0,-37.667l18.546,0l-0,-39.695l44.041,-0l0,39.695l36.509,0l-0,37.667l-36.509,0l0,66.588c0,10.083 4.734,15.12 14.196,15.12c7.725,0 14.971,-1.925 21.734,-5.795l-0,35.35c-4.638,2.708 -9.759,4.883 -15.355,6.52c-5.608,1.638 -12.079,2.459 -19.416,2.459" style="fill:#fff;fill-rule:nonzero;"/><path id="o" d="M340.161,290.476c6.375,-0 12.025,-1.109 16.954,-3.329c4.921,-2.225 9.125,-5.263 12.6,-9.13c3.479,-3.866 6.129,-8.358 7.967,-13.479c1.837,-5.112 2.758,-10.571 2.758,-16.366l0,-0.58c0,-5.795 -0.971,-11.25 -2.9,-16.37c-1.933,-5.117 -4.738,-9.659 -8.404,-13.617c-3.671,-3.954 -8.017,-7.1 -13.038,-9.417c-5.025,-2.316 -10.529,-3.475 -16.516,-3.475c-6.371,0 -12.021,1.113 -16.95,3.329c-4.925,2.225 -9.125,5.263 -12.604,9.13c-3.475,3.862 -6.134,8.354 -7.967,13.47c-1.838,5.121 -2.754,10.575 -2.754,16.371l-0,0.579c-0,5.796 0.966,11.255 2.9,16.367c1.929,5.121 4.729,9.663 8.4,13.621c3.671,3.958 7.966,7.1 12.896,9.421c4.929,2.316 10.475,3.475 16.658,3.475m-0.579,37.958c-11.979,0 -23.084,-2.079 -33.317,-6.229c-10.242,-4.154 -19.079,-9.854 -26.517,-17.096c-7.437,-7.246 -13.283,-15.742 -17.525,-25.5c-4.254,-9.75 -6.375,-20.233 -6.375,-31.437l0,-0.58c0,-11.2 2.121,-21.683 6.375,-31.433c4.242,-9.754 10.142,-18.3 17.671,-25.646c7.534,-7.337 16.417,-13.133 26.659,-17.387c10.237,-4.242 21.441,-6.375 33.608,-6.375c11.975,-0 23.083,2.083 33.325,6.233c10.233,4.154 19.071,9.85 26.508,17.092c7.438,7.25 13.279,15.75 17.529,25.5c4.246,9.754 6.38,20.237 6.38,31.437l-0,0.579c-0,11.2 -2.134,21.688 -6.38,31.438c-4.25,9.758 -10.137,18.304 -17.675,25.646c-7.529,7.341 -16.42,13.133 -26.654,17.383c-10.241,4.246 -21.441,6.375 -33.612,6.375" style="fill:#fff;fill-rule:nonzero;"/><rect id="l" x="450.551" y="113.44" width="44.042" height="211.517" style="fill:#fff;"/><path id="e" d="M630.77,235.133c-1.355,-9.854 -4.83,-17.821 -10.434,-23.904c-5.604,-6.084 -13.037,-9.129 -22.308,-9.129c-9.271,-0 -16.758,3 -22.454,8.983c-5.7,5.992 -9.417,14.008 -11.159,24.05l66.355,-0Zm-28.392,93.3c-11.596,-0 -22.367,-1.938 -32.313,-5.8c-9.95,-3.858 -18.541,-9.363 -25.783,-16.513c-7.246,-7.141 -12.896,-15.595 -16.95,-25.35c-4.058,-9.754 -6.087,-20.62 -6.087,-32.6l-0,-0.579c-0,-11.008 1.887,-21.441 5.65,-31.296c3.766,-9.845 9.029,-18.437 15.791,-25.779c6.759,-7.341 14.821,-13.133 24.196,-17.391c9.367,-4.242 19.746,-6.375 31.146,-6.375c12.942,-0 24.146,2.32 33.612,6.954c9.459,4.637 17.334,10.866 23.609,18.691c6.279,7.825 10.912,16.809 13.908,26.946c2.996,10.142 4.496,20.717 4.496,31.729c-0,1.738 -0.05,3.58 -0.146,5.505c-0.1,1.933 -0.246,3.958 -0.433,6.087l-108.079,0c2.129,10.046 6.52,17.629 13.187,22.742c6.663,5.121 14.921,7.679 24.771,7.679c7.337,-0 13.912,-1.258 19.704,-3.767c5.796,-2.508 11.779,-6.566 17.963,-12.171l25.208,22.313c-7.346,9.083 -16.225,16.179 -26.654,21.292c-10.434,5.12 -22.704,7.683 -36.796,7.683" style="fill:#fff;fill-rule:nonzero;"/><path id="n" d="M699.147,169.648l44.042,0l-0,22.204c2.504,-3.308 5.258,-6.47 8.258,-9.487c2.992,-3.013 6.321,-5.683 9.992,-8.017c3.671,-2.337 7.725,-4.187 12.171,-5.55c4.441,-1.362 9.462,-2.046 15.066,-2.046c16.804,0 29.796,5.121 38.971,15.355c9.171,10.241 13.763,24.345 13.763,42.308l-0,100.537l-44.042,0l-0,-86.42c-0,-10.4 -2.317,-18.255 -6.954,-23.559c-4.634,-5.291 -11.204,-7.941 -19.7,-7.941c-8.504,-0 -15.213,2.65 -20.138,7.941c-4.925,5.304 -7.387,13.159 -7.387,23.559l-0,86.42l-44.042,0l0,-155.304Z" style="fill:#fff;fill-rule:nonzero;"/></g><g><path d="M158.992,0.01l44.021,0c0,0 0,41.08 0,41.08c0,-0 -44.021,-0 -44.021,-0l-0,-41.08Z" style="fill:#b22222;"/><path d="M316.138,0.01l44.021,0c0,0 0,41.08 0,41.08c0,-0 -44.021,-0 -44.021,-0l-0,-41.08Z" style="fill:#fff;"/><path d="M447.883,0.01l44.021,0c0,0 0,41.08 0,41.08c0,-0 -44.021,-0 -44.021,-0l-0,-41.08Z" style="fill:#b22222;"/><path d="M744.967,0.01l44.022,0c-0,0 -0,41.08 -0,41.08c-0,-0 -44.022,-0 -44.022,-0l0,-41.08Z" style="fill:#fff;"/><path d="M1638.6,0.01l44.022,0c-0,0 -0,41.08 -0,41.08c-0,-0 -44.022,-0 -44.022,-0l0,-41.08Z" style="fill:#b22222;"/></g></g></svg>