<?xml version="1.0" encoding="UTF-8" standalone="no"?><!DOCTYPE svg PUBLIC "-//W3C//DTD SVG 1.1//EN" "http://www.w3.org/Graphics/SVG/1.1/DTD/svg11.dtd"><svg width="100%" height="100%" viewBox="0 0 1288 446" version="1.1" xmlns="http://www.w3.org/2000/svg" xmlns:xlink="http://www.w3.org/1999/xlink" xml:space="preserve" xmlns:serif="http://www.serif.com/" style="fill-rule:evenodd;clip-rule:evenodd;stroke-linejoin:round;stroke-miterlimit:2;"><g id="candy"><path d="M1027.61,222.439l0.026,0.541c0.236,4.289 0.218,8.799 -0.101,13.49c-0.44,6.421 -1.388,18.532 -7.22,32.825c-2.703,6.569 -8.027,17.366 -22.4,32.898c-23.633,25.53 -48.796,39.32 -56.531,43.398c-35.223,18.458 -67.539,22.834 -84.1,24.073c-36.76,2.771 -64.769,-4.667 -79.799,-8.677c-25.746,-7.152 -32.018,-13.127 -63.095,-24.655l-0.868,-0.292c-47.42,-17.36 -99.421,-17.36 -146.761,0l-0.88,0.292c-30.996,11.528 -37.417,17.503 -63.089,24.655c-15.03,4.01 -43.113,11.448 -79.798,8.677c-16.561,-1.239 -48.877,-5.615 -84.106,-24.073c-7.655,-4.078 -32.819,-17.868 -56.532,-43.398c-14.367,-15.532 -19.691,-26.329 -22.319,-32.898c-5.906,-14.293 -6.855,-26.404 -7.295,-32.825c-0.288,-4.397 -0.314,-8.637 -0.073,-12.683l0.052,-0.807c1.066,-23.135 8.669,-39.916 10.818,-44.349c14.956,-31.585 40.268,-46.974 49.677,-52.007c-0,0 -24.581,-2.994 -52.664,28.157c9.774,-19.405 22.027,-32.024 27.717,-37.274c45.22,-42.673 106.71,-37.783 126.264,-36.252c30.414,2.479 39.24,10.357 94.6,29.614c0.731,0.291 1.388,0.508 2.045,0.657c83.517,29.248 174.404,29.248 257.996,-0c0.657,-0.149 1.314,-0.366 1.971,-0.657c55.36,-19.257 64.26,-27.135 94.599,-29.614c19.555,-1.531 81.113,-6.421 126.265,36.252c5.621,5.25 18.023,17.869 27.717,37.274c-27.934,-31.151 -52.664,-28.157 -52.664,-28.157c9.34,5.033 34.727,20.422 49.745,52.007c2.08,4.399 9.621,20.953 10.803,43.808Zm-684.347,210.32c-20.856,-3.935 -39.022,-11.305 -54.337,-20.056c-47.706,-47.557 -43.113,-89.573 -43.113,-89.573c53.395,95.405 143.625,104.962 185.567,103.574c-43.622,13.716 -79.291,7.809 -88.117,6.055Zm-71.332,-379.079c9.551,-9.625 21.879,-16.263 34.789,-20.639c12.768,-4.233 26.986,-6.204 39.903,-5.906l37.857,-0.657c50.841,-1.172 101.677,-2.56 152.593,-3.211c50.842,-0.731 101.677,-0.88 152.668,-0.44c50.916,0.731 101.894,1.463 152.81,5.547c-50.916,3.57 -101.677,13.784 -152.519,16.332c-50.842,2.56 -101.683,4.673 -152.525,5.987c-50.91,1.531 -101.752,-4.673 -152.81,-4.741c-12.694,-0.075 -25.53,-0.217 -38.514,-0.589c-6.638,-0.143 -11.888,-0.508 -18.018,-0.285c-5.907,0.217 -11.813,0.874 -17.652,2.188c-23.267,4.227 -45.077,17.943 -58.421,40.044c3.278,-12.402 10.208,-24.289 19.839,-33.63Zm756.329,20.206c-24.215,-38.806 -95.553,-42.376 -114.519,-41.793c19.771,-5.615 66.38,-3.427 70.39,-2.702c9.408,1.605 17.658,4.599 24.655,8.094c21.52,19.332 19.474,36.401 19.474,36.401Zm46.943,150.231c0.016,11.743 -0.489,23.436 -1.425,35.186c-0.657,7.878 -1.314,15.756 -2.485,23.633c-1.017,8.318 -2.331,16.636 -3.93,24.879c-0.291,2.33 -0.806,4.667 -1.314,7.072c-0.514,2.628 -1.097,5.181 -1.605,7.803c-7.376,33.772 -18.458,67.031 -33.481,98.981l-0.874,2.045c-6.347,13.642 -20.212,22.245 -35.378,22.245l-706.151,-0c-15.098,-0 -28.591,-8.386 -35.161,-21.736l-0.948,-2.039c-18.743,-38.806 -31.727,-79.582 -38.874,-121.158c-1.245,-7.078 -2.411,-14.15 -3.21,-21.228c-0.806,-6.489 -1.531,-12.91 -1.971,-19.331c-1.091,-12.524 -1.628,-25.01 -1.583,-37.489l-0.002,-0.943c-0.003,-4.72 0.094,-9.439 0.271,-14.158c0.074,-4.593 0.291,-9.26 0.589,-13.927c0.874,-13.79 2.33,-27.432 4.593,-41.067c6.854,-45.078 20.639,-89.356 41.135,-131.298c3.285,-6.563 8.244,-11.887 14.373,-15.755c6.056,-3.719 13.202,-5.832 20.639,-5.832l706.442,0c15.099,0 28.889,8.603 35.236,22.102c16.263,34.498 28.151,70.607 35.669,107.218c1.159,5.764 2.182,11.38 3.136,17.144c1.599,9.408 2.913,18.891 3.861,28.374c0.806,7.661 1.383,15.247 1.754,22.901c0.366,6.496 0.583,12.985 0.651,19.474c0.075,1.246 0.075,2.486 0.075,3.651l-0.035,2.116l0.003,1.137Z" style="fill:#3e8ed0;"/><path d="M332.473,222.425c-8.74,-11.602 -12.293,-19.928 -12.293,-19.928c26.174,-21.575 47.08,-29.917 63.176,-32.254c-8.485,-2.876 -17.23,-4.809 -26.447,-5.615c-11.354,-1.134 -23.174,-0.062 -35.526,1.605c10.016,-7.412 21.835,-12.489 34.591,-15.228c12.755,-2.74 26.378,-2.467 39.4,0.198c26.18,5.411 48.889,19.102 68.723,33.934c16.133,12.028 30.608,25.236 44.995,37.843l10.235,8.902c8.943,7.543 17.893,14.757 27.711,20.633c9.749,5.876 20.372,10.419 32.725,12.29c-2.87,1.066 -6.012,1.872 -9.148,2.405c-20.77,10.146 -80.475,36.531 -146.588,16.759c-48.656,-14.491 -76.737,-41.958 -91.133,-60.989l-0.421,-0.555Z" style="fill:#3e8ed0;"/><path d="M936.612,222.98c-14.405,19.03 -42.482,46.499 -91.054,60.994c-66.114,19.766 -125.886,-6.613 -146.65,-16.765c-3.142,-0.533 -6.216,-1.333 -9.154,-2.405c12.353,-1.872 22.976,-6.409 32.787,-12.29c9.75,-5.87 18.774,-13.09 27.717,-20.633l10.233,-8.901l176.121,0Zm-176.121,0c14.386,-12.606 28.851,-25.812 44.929,-37.844c19.902,-14.826 42.611,-28.517 68.791,-33.928c12.954,-2.671 26.577,-2.944 39.338,-0.204c12.75,2.739 24.637,7.815 34.653,15.228c-12.421,-1.667 -24.172,-2.733 -35.595,-1.599c-9.142,0.799 -18.029,2.739 -26.44,5.609c16.158,2.337 36.989,10.685 63.176,32.254c-0,0 -3.677,8.592 -12.731,20.484l-176.121,0Z" style="fill:#3e8ed0;"/><path d="M1099.45,219.914l0.074,3.651c0.075,12.836 -0.434,25.597 -1.456,38.44c-0.583,7.877 -1.314,15.755 -2.405,23.632c-1.023,8.318 -2.337,16.629 -3.942,24.873c15.755,4.084 32.608,9.408 50.185,16.263c80.232,31.659 113.497,89.579 131.074,79.29c13.493,-7.803 5.913,-28.448 2.702,-28.739c-1.822,-0.143 -3.501,-7.364 -5.981,7.586c-25.455,-64.409 -21.153,-105.985 -11.088,-132.903c1.897,-5.208 6.29,-15.92 9.378,-28.43l0.146,-0.597c4.018,-15.681 5.944,-34.079 -1.423,-47.852c-1.612,-2.919 -3.291,-9.334 -7.227,-8.169c-18.302,5.473 -36.543,10.939 -54.852,16.344l0.143,-0.149c7.295,-6.198 55.583,-35.743 59.816,-41.21c15.681,-20.28 -19.914,-51.207 -6.272,-70.464c3.936,-5.547 8.02,-6.13 18.234,-18.743c9.774,-11.968 12.402,-19.189 10.357,-24.513c0,0 -0.366,-1.605 -1.531,-2.696c-17.069,-15.978 -82.135,19.548 -195.334,106.493c1.159,5.764 2.256,11.38 3.204,17.144c1.605,9.408 2.919,18.891 3.868,28.3l-0,0.074c0.731,7.661 1.388,15.241 1.754,22.901c0.285,6.496 0.508,12.985 0.576,19.474Zm100.81,87.094c-8.318,-4.81 -16.853,-8.826 -25.747,-12.47c-17.949,-7.004 -36.84,-11.746 -56.822,-17.51c10.208,-2.844 20.719,-3.136 31.144,-2.33c10.431,0.874 20.788,3.204 30.779,7.004c9.849,3.935 19.189,9.551 27.215,16.771c7.872,7.221 13.995,16.561 16.989,26.627c-7.946,-7.004 -15.315,-13.059 -23.558,-18.092Zm30.334,-215.883c-1.527,5.752 -2.549,10.412 -4.077,14.924c-1.389,4.457 -2.994,8.541 -4.81,12.551c-1.822,4.01 -3.942,8.02 -6.272,11.82c-2.337,3.935 -5.473,7.729 -8.832,12.687l-0.001,-0.003l-0.002,0.005c5.913,0.217 11.528,-1.531 16.561,-5.032c4.884,-3.577 8.683,-8.244 11.162,-13.716c4.81,-10.791 4.376,-24.507 -3.718,-33.259l-0.011,0.023Z" style="fill:#3e8ed0;"/><path d="M19.219,222.243l0.187,0.737c3.086,12.767 7.593,23.738 9.553,29.032c10.065,26.912 14.367,68.488 -11.163,132.903c-2.405,-14.956 -4.084,-7.735 -5.981,-7.593c-3.21,0.292 -10.722,20.937 2.703,28.74c17.651,10.289 50.909,-47.625 131.074,-79.284c17.577,-6.861 34.429,-12.185 50.184,-16.27c-1.605,-8.237 -2.919,-16.554 -3.941,-24.872c-1.091,-7.878 -1.823,-15.755 -2.405,-23.633c-1.023,-12.836 -1.531,-25.603 -1.463,-38.439l0.074,-3.651c0.075,-6.489 0.298,-12.978 0.583,-19.474c0.366,-7.654 1.023,-15.241 1.754,-22.901l0,-0.075c0.948,-9.408 2.262,-18.891 3.868,-28.3c1.016,-5.764 2.039,-11.379 3.204,-17.143c-113.199,-86.945 -178.265,-122.465 -195.266,-106.493c-1.166,1.091 -1.531,2.696 -1.531,2.696c-2.039,5.33 0.514,12.551 10.288,24.513c10.283,12.613 14.367,13.201 18.235,18.742c13.716,19.257 -21.953,50.185 -6.273,70.465c4.234,5.473 52.516,35.012 59.811,41.21l0.223,0.149c-18.383,-5.399 -36.624,-10.871 -54.927,-16.338c-3.941,-1.171 -5.615,5.25 -7.146,8.163c-7.256,13.558 -5.526,31.598 -1.645,47.116Zm93.84,72.293c-8.975,3.645 -17.503,7.661 -25.821,12.471c-8.169,5.032 -15.538,11.088 -23.558,18.091c3.061,-10.065 9.111,-19.405 17.069,-26.626c8.02,-7.221 17.354,-12.836 27.277,-16.772c9.923,-3.799 20.273,-6.129 30.711,-7.003c10.357,-0.806 20.93,-0.515 31.144,2.33c-20.056,5.764 -38.879,10.506 -56.822,17.509Zm-48.654,-156.461c-4.959,-3.576 -8.677,-8.243 -11.157,-13.716c-4.89,-10.79 -4.375,-24.506 3.645,-33.258c1.605,5.764 2.628,10.431 4.159,14.95c1.388,4.456 2.987,8.54 4.741,12.55c1.822,4.01 3.936,8.021 6.347,11.82c2.33,3.936 5.466,7.729 8.826,12.687c-5.981,0.223 -11.597,-1.531 -16.561,-5.033Z" style="fill:#3e8ed0;"/></g></svg>